<svg xmlns="http://www.w3.org/2000/svg" viewBox="0 0 389.1582 437.39895"><defs><style>.a{fill:#23020b;}.b{fill:#fff;}.c{fill:#cc590a;}.d{fill:#f47b20;}.e{fill:#f9dea7;}</style></defs><path class="a" d="M192.502,411.5703c-2.06891-2.1543-4.17141-4.5469-6.63381-7.5566-20.3604-24.9414-34.0718-55.8164-45.86919-85.4805-.90571-2.2383-1.87991-4.5801-2.88821-6.9414l-.2226-.5117c-1.2139-2.8223-2.4785-5.7285-3.6245-8.77-3.0596-7.7618-4.7525-14.1734-5.3169-20.1236l-.0855-.9741c-1.247-14.1553-2.6494-30.1909-3.0942-46.3643-.1196-3.8286-.1875-7.7275-.2227-11.5913.01761-2.9912.0855-5.9487.1372-8.8886.1368-6.189.274-12.0537-.11959-17.9683a80.98855,80.98855,0,0,0-1.04341-9.1807c-.7515-4.291-3.128-8.1045-5.62459-12.1215-.666-1.0596-1.33351-2.1202-1.98291-3.2315l-4.5127,4.0523c-.8383,7.1289-5.5742,20.207-27.6616,28.2426A34.07914,34.07914,0,0,1,73.291,206.1958c-.27391.0166-.56441.0166-.855.0166-21.86621,0-33.79881-22.6182-37.38861-30.7388a33.12219,33.12219,0,0,1-23.063-10.9414C4.34279,156.3599.03419,144.3076,0,131.5024V306.9102a42.98124,42.98124,0,0,0,21.47269,37.1992l151.6254,87.5312a42.94563,42.94563,0,0,0,42.962,0l.478-.2715A153.729,153.729,0,0,1,192.502,411.5703Z"/><path class="a" d="M127.28079,46.2954c6.3759-.1875,11.1118-1.1279,14.0698-2.8208.5127-.2905,1.0766-.6157,1.6411-.9224a67.57774,67.57774,0,0,1,5.2139-21.0971l-41.0303,23.6948a175.46079,175.46079,0,0,0,17.9849,1.1807C125.87789,46.3306,126.57909,46.313,127.28079,46.2954Z"/><path class="a" d="M198.38279,13.9326a64.54364,64.54364,0,0,1,6.9243,13.2842,37.29327,37.29327,0,0,1,5.4702,2.1704,34.95123,34.95123,0,0,1,4.9922,3.0606c5.3506-5.2823,12.0874-10.6504,19.8316-14.0694l-19.541-11.2842a42.89254,42.89254,0,0,0-30.5503-4.7866A34.55757,34.55757,0,0,1,198.38279,13.9326Z"/><path class="a" d="M367.66888,94.62646l-3.98089-2.2984L278.27246,43.01318c-.05127,1.0434-.1358,2.103-.274,3.18018-1.93158,16.685-12.08538,34.79053-24.37841,44.27881a48.25294,48.25294,0,0,1,1.5567,4.9751c1.36761,5.7099,2.54785,13.76171,3.96484,27.01171.12158.9917.22217,2,.3252,3.0254l.22271,2.27392c.46088,4.12109.88959,8.46289,1.31586,12.95947l.103,1.12744c1.36719,13.79688,3.28271,27.74756,5.14648,41.25385l.90619,6.54742a209.27367,209.27367,0,0,0,7.044,32.414c.47748,1.53857.9555,3.17968,1.45209,4.87262,2.6831,9.12988,6.03619,20.48046,11.19732,27.26855,8.292,10.90723,27.37158,17.5058,41.61328,19.01172a20.51811,20.51811,0,0,0,2.25489.11908,17.48543,17.48543,0,0,0,3.74414-.37689,14.85511,14.85511,0,0,0,5.2749-2.24219c8.20209-5.4419,13.36768-18.85162,18.38721-31.8985,5.48877-14.17181,10.66845-27.5249,20.43066-35.67957a65.86683,65.86683,0,0,1,10.59863-7.06011V131.82758A42.94238,42.94238,0,0,0,367.66888,94.62646Z"/><ellipse class="b" cx="182.10202" cy="74.78404" rx="20.34109" ry="17.28404"/><path class="c" d="M191.30569,30.4307a47.99484,47.99484,0,0,0-4.6333-8.2578c-3.3506-4.8204-8.6167-9.898-14.4463-6.9747a22.8903,22.8903,0,0,0-5.1118,3.5899c-5.5909,5.3169-9.0611,13.5747-9.7276,21.8486,10.9238-5.4878,22.5152-9.8979,33.6284-10.2412A.57139.57139,0,0,1,191.30569,30.4307Z"/><path class="d" d="M387.1582,213.46191c-18.9248,15.64209-15.541,51.09906-2.90582,69.35889q-15.25845,1.94971-30.5,3.84515c-4.663.58063-9.33636,1.17432-14.01068,1.28614-1.39313.03332-2.78613.02887-4.17922-.038a84.81522,84.81522,0,0,1-14.37742-2.06787c-19.18268-4.13769-40.29688-13.48779-51.3916-30.75488-9.67578-15.09674-11.09479-37.9541-14.49707-55.44385-3.55713-18.6861-6.53083-37.4917-8.395-56.43457-.2901-2.63184-.54792-5.31641-.8028-8.03522-.0683-.768-.1709-1.5722-.23919-2.35791-1.29932-12.71966-2.63379-25.1831-4.22407-32.44915a25.98161,25.98161,0,0,0-1.45172-5.04395,17.24184,17.24184,0,0,0-1.8291-3.23047,25.264,25.264,0,0,0-3.76269-4.35992h-.0166v-.0166h-.01661a.07846.07846,0,0,0-.05133-.01758,38.41809,38.41809,0,0,0-8.39447-6.0683L223.89056,80.522l-.27435-2.49511a73.41218,73.41218,0,0,0-5.26373-19.1651v-.01655A26.73859,26.73859,0,0,0,210.186,55.251a25.37653,25.37653,0,0,0-4.58831-.7154c-.06836-.0039-.13727-.00677-.20606-.01068-.271-.01459-.542-.03613-.81354-.042a24.91055,24.91055,0,0,0-3.74408.21729,26.091,26.091,0,0,0-4.34857.95208,26.63507,26.63507,0,0,0-11.06213,6.69293,27.44679,27.44679,0,0,1,9.814,1.8443,25.74318,25.74318,0,0,1,3.7129,1.81537,26.59449,26.59449,0,0,1,3.793,2.72022,25.18088,25.18088,0,0,1,5.7519,6.95556,38.38254,38.38254,0,0,0-6.79639-4.711,36.04743,36.04743,0,0,0-4.12451-1.92041A33.11263,33.11263,0,0,0,192.30908,67.48a29.88337,29.88337,0,0,0-5.06592-.6275,22.52338,22.52338,0,0,0-3.09716.11719,17.42708,17.42708,0,0,1,4.10638,1.71441l.00928-.00982.01031.0205.02491.01471a28.60163,28.60163,0,0,1,5.93261,4.6225,43.84729,43.84729,0,0,1,3.04932,3.3877,52.02059,52.02059,0,0,1,5.02777,7.36724c-3.41058-3.32623-7.73682,1.58789-7.73682,1.58789a21.64951,21.64951,0,0,1-15.84417,6.38971c-10.0752-.17834-15.34772-8.72955-15.34772-8.72955a7.07939,7.07939,0,0,1-.13275-3.981,9.6386,9.6386,0,0,1,.38086-1.26812c-.732.10113-1.46241.19439-2.1861.28369-19.98968,2.47369-40.56049,4.91412-60.04047-.2124-3.5166-.92579-7.13433-2.10346-10.71392-1.46338-3.58051.64068-7.01459,3.898-6.34711,7.47216.86371,4.632,7.5459,6.47516,8.17334,11.145.39307,2.92872-2.00293,5.65039-4.78125,6.6568-2.77838,1.00733-5.836.71534-8.77588.41993-8.59961-.86481-18.23438-1.35114-24.84229,4.21917-6.5288,5.502-7.82708,15.07379-13.02343,21.8487-4.03266,5.25781-10.15241,8.48632-16.32276,10.90332a82.40609,82.40609,0,0,1-9.03808,2.94732l.00049.00135v.0166a29.59827,29.59827,0,0,0,6.70117,12.5152c4.90667,5.26513,11.2666,7.36761,17.89941,5.93212,17.14746-3.82959,31.08148-17.1651,31.25238-17.37011,4.01709-3.84619,8.753-8.78668,14.22418-10.36042a4.5507,4.5507,0,0,1,3.00885-.102,6.62411,6.62411,0,0,1,2.01661,1.5561,4.87232,4.87232,0,0,0,.54779.4273,22.08649,22.08649,0,0,0,12.8565,5.7265,32.68118,32.68118,0,0,1-11.31842.9917c-2.35888-.18847-4.76953-.6499-7.04352.0337-6.3081,1.93212-9.40277,12.60064-13.47259,17.55865a41.79653,41.79653,0,0,1-8.9917,8.37647c-1.19678.85449-12.68561,7.21429-13.48932,5.70989,3.77832,7.19831,11.72852,18.92634,23.01172,18.60059a18.00958,18.00958,0,0,0,5.91614-1.1792c6.99206-2.52978,16.97546-7.38519,18.29144-15.76221,1.48822-9.28369-.73389-17.14788,5.02734-25.83294a16.56606,16.56606,0,0,0,.58106,6.06927c2.393,7.98389,6.56445,3.522,10.2915.03418,7.76123-7.24847,15.43805-14.24066,26.08881-16.72015a35.8,35.8,0,0,0-6.92377,24.66986c.71778,7.35162,4.59857,12.41211,11.83112,12.80524a10.18359,10.18359,0,0,0,1.45257.03418,21.21089,21.21089,0,0,0,2.5127-.25641c21.35351-3.12891,45.561-21.3017,45.81787-21.49018l24.0542-18.18994c-5.09528,7.07764-9.24957,14.99311-14.34479,21.9682a6.32125,6.32125,0,0,1,.92481-.27337c-.46137,7.57318-3.23139,11.79638-6.8725,17.86572-3.59082,6.03467-4.03522,13.59076-5.93262,20.34418-3.26569,11.81347-7.84717,22.29351-9.21539,34.75592-.0683.70215-.15381,1.4375-.1875,2.13769-2.13819,22.78858,1.82861,46.07367,10.05231,67.34076,14.03613,36.26135,39.47558,67.03272,66.94769,94.62653,2.51471,2.51367,5.04352,5.02728,7.67584,7.42187l89.91205-51.92187,10.83642-6.25781a42.96187,42.96187,0,0,0,21.48932-37.19922v-95.022C388.47461,212.38477,387.80707,212.91406,387.1582,213.46191ZM321.86041,353.35156c-2.66705,15.73432-23.02936,23.13471-38.05182,17.7461-15.0205-5.39069-25.2373-19.21485-33.3731-32.94336a294.89143,294.89143,0,0,1-40.79493-158.28369c.10505-3.50934.57673-7.56641,3.52985-9.46143,4.73926-3.03857,10.49762,2.23871,13,7.28168,6.32465,12.73834,7.48438,27.31543,10.7984,41.14654a133.1889,133.1889,0,0,0,30.76306,58.20221c18.09723,19.9306,42.96588,35.41736,52.1001,60.7417C321.62988,342.75977,322.74408,348.13281,321.86041,353.35156Z"/><path class="e" d="M213.35889,50.10986l-.001-.00146v-.01709a23.11625,23.11625,0,0,0-3.04205-3.55615,21.24187,21.24187,0,0,0-5.915-4.34229.12971.12971,0,0,0-.1192-.0166,22.619,22.619,0,0,0-5.04389-1.86377h-.0166a25.33592,25.33592,0,0,0-4.75342-.70172,27.71087,27.71087,0,0,0-3.16211-.0849c-10.583.29-22.25976,5.26459-33.2525,11.07812-1.96478,1.0083-3.82757,2.0503-5.74067,3.10987l-.00341.00189h-.01758c-1.29931.73541-2.61572,1.43561-3.86383,2.1709a3.33034,3.33034,0,0,1-.54681.29053c-5.00879,2.70172-11.65869,4.12017-20.208,4.35992-9.91565.29047-21.11334-1.00934-31.95172-2.30914-3.17969-.37549-6.30908-.75141-9.335-1.07611-7.6933-.8379-14.75336-1.35059-20.49847-.88965C44.24408,58.05707,35.02979,67.44379,34.80707,71.10248a28.99334,28.99334,0,0,0,3.30084,13.91607c2.83685,5.50434,7.40186,9.74463,13.26508,8.56495,2.32519-.479,4.37652-1.79493,6.5484-2.75293A18.24826,18.24826,0,0,1,77.479,94.77979c-6.188-1.05958-12.6167-2.11921-18.498-.10163-1.60651.53034-3.07672,1.2984-4.65045,1.87995-4.75251,1.69335-9.93219,1.67578-14.92426.9746a16.61975,16.61975,0,0,0-5.813-.1875c-3.82959.92237-9.36865,8.59858-11.74469,11.74415a35.96994,35.96994,0,0,0-7.3515,18.019,40.98456,40.98456,0,0,0,1.231,15.19781,82.40609,82.40609,0,0,0,9.03808-2.94732c6.17035-2.417,12.2901-5.64551,16.32276-10.90332,5.19635-6.77491,6.49463-16.34668,13.02343-21.8487,6.60791-5.57031,16.24268-5.084,24.84229-4.21917,2.93988.29541,5.9975.5874,8.77588-.41993,2.77832-1.00641,5.17432-3.72808,4.78125-6.6568-.62744-4.66986-7.30963-6.51306-8.17334-11.145-.66748-3.57415,2.7666-6.83148,6.34711-7.47216,3.57959-.64008,7.19732.53759,10.71392,1.46338,19.48,5.12652,40.05079,2.68609,60.04047.2124.72369-.0893,1.4541-.18256,2.1861-.28369a11.84134,11.84134,0,0,1,1.57373-2.86127,16.04677,16.04677,0,0,1,1.37445-1.62354c-.77625.45514-1.47064.87452-2.07855,1.24274a12.42843,12.42843,0,0,1-2.58893,1.4057c-.33387.00879-.1015-1.01715.773-2.51324a22.60538,22.60538,0,0,1,8.11767-7.76319,27.988,27.988,0,0,1,13.42231-3.625c.40924-.01117.8067-.00732,1.20361-.00287a26.63507,26.63507,0,0,1,11.06213-6.69293,26.091,26.091,0,0,1,4.34857-.95208,24.91055,24.91055,0,0,1,3.74408-.21729c.27155.00586.54255.0274.81354.042.06879.00391.1377.00678.20606.01068a25.37653,25.37653,0,0,1,4.58831.7154,26.73859,26.73859,0,0,1,8.16651,3.59423v-.03515A43.81232,43.81232,0,0,0,213.35889,50.10986ZM60.28558,80.59808c-4.37011.53723-8.68158,1.86768-13.0791,1.6485a3.32684,3.32684,0,0,1-1.913-.53131,1.96859,1.96859,0,0,1-.48493-.56048,5.01177,5.01177,0,0,1-.48193-2.35163c-.08057-2.729.02881-5.88721,2.18213-7.56586a8.7097,8.7097,0,0,1,4.70257-1.354c4.2652-.373,8.59961-.67383,12.79694.1709l.01758.00439c4.19189.8462,8.29,2.9795,10.63043,6.55811a24.5697,24.5697,0,0,1,1.50238,2.79791q.79551,1.65,1.59332,3.30066A36.70024,36.70024,0,0,0,60.28558,80.59808Z"/><path class="c" d="M192.29689,300.2407c-8.2237-21.2671-12.1905-44.5522-10.0523-67.3408.0337-.7002.1192-1.4355.1875-2.1377,1.3682-12.4624,5.9497-22.9424,9.2154-34.7559,1.8974-6.7534,2.3418-14.3095,5.9326-20.3442,3.6411-6.0693,6.4111-10.2925,6.8725-17.8657a6.31348,6.31348,0,0,0-.9248.2734c-.9043,1.2827-1.8452,2.5137-2.8032,3.6582a49.13419,49.13419,0,0,1-8.49659,8.2578c-4.75241,3.4707-9.48831,6.9922-14.24071,10.5142-3.4702,2.5137-6.9414,5.0952-10.4282,7.6597-5.2324,3.8457-10.5654,7.8466-14.03709,13.3857a32.1634,32.1634,0,0,0-3.19631,7.0274,83.81885,83.81885,0,0,0-2.7349,14.1879c-2.7363,20.9947-6.7871,45.6475-2.8554,67.5137a73.85236,73.85236,0,0,0,4.684,16.0186c1.0611,2.5136,2.12061,4.9414,3.043,7.2832,10.6172,26.6679,23.6108,57.2207,43.8003,81.9746,2.0522,2.5488,3.9658,4.7539,5.916,6.7539a149.30924,149.30924,0,0,0,26.9595,21.7988l37.78219-21.8144c-2.6323-2.3946-5.1611-4.9082-7.6758-7.4219C231.77249,367.2734,206.333,336.502,192.29689,300.2407Z"/><path class="a" d="M76.15869,79.41461a24.5697,24.5697,0,0,0-1.50238-2.79791c-2.34039-3.57861-6.43854-5.71191-10.63043-6.55811l-.01758-.00439c-4.19733-.84473-8.53174-.54389-12.79694-.1709a8.7097,8.7097,0,0,0-4.70257,1.354c-2.15332,1.67865-2.2627,4.83686-2.18213,7.56586a5.01177,5.01177,0,0,0,.48193,2.35163,1.96859,1.96859,0,0,0,.48493.56048,3.32684,3.32684,0,0,0,1.913.53131c4.39752.21918,8.709-1.11127,13.0791-1.6485A36.70024,36.70024,0,0,1,77.752,82.71527Q76.95431,81.06376,76.15869,79.41461Z"/><path class="e" d="M267.73188,277.0396a133.18834,133.18834,0,0,1-30.76309-58.2022c-3.314-13.8311-4.4737-28.4082-10.7984-41.1465-2.50239-5.043-8.2607-10.3203-13-7.2817-2.9531,1.895-3.4248,5.9521-3.5298,9.4614a294.89116,294.89116,0,0,0,40.79489,158.2837c8.1358,13.7285,18.3526,27.5527,33.3731,32.9434,15.0225,5.3886,35.3848-2.0118,38.0518-17.7461.8837-5.2188-.2305-10.5918-2.02838-15.5703C310.69778,312.457,285.82908,296.9702,267.73188,277.0396Z"/><path class="d" d="M262.80127,34.07178a7.77173,7.77173,0,0,0-5.16309-4.35889,22.80473,22.80473,0,0,0-3.4024-.5816,22.11777,22.11777,0,0,0-2.80322-.11963c-7.21479.18854-28.6543,8.34332-25.01068,18.3609a4.62194,4.62194,0,0,0,3.79339,3.09424c3.5567.32568,5.50543-3.93164,8.37854-6.10352a10.48982,10.48982,0,0,1,8.25629-1.6402,21.88948,21.88948,0,0,1,7.83056,3.52149c.40961.22272.80323.8374.393,1.05963a35.28907,35.28907,0,0,0-13.1294,4.18848,11.13387,11.13387,0,0,1,4.4795,3.915c-5.14649-1.33355-10.687,2.03467-13.02875,6.80469a17.77073,17.77073,0,0,0-1.62256,9.29981V71.564c.25531,1.19635.44232,2.2392.59711,3.09424a44.98394,44.98394,0,0,1,9.14654,7.04346c4.25678-2.1026,8.75287-7.31738,11.04535-10.36035,5.77692-7.6582,10.15332-17.21582,11.26563-26.82324C264.23676,41.064,264.22021,37.08105,262.80127,34.07178Z"/><path class="a" d="M194.22949,73.332a28.60163,28.60163,0,0,0-5.93261-4.6225h-.01807l-.00684-.01471-.01959-.01068a17.42708,17.42708,0,0,0-4.10638-1.71441,22.52338,22.52338,0,0,1,3.09716-.11719,29.88337,29.88337,0,0,1,5.06592.6275,33.11263,33.11263,0,0,1,5.26508,1.56928,36.04743,36.04743,0,0,1,4.12451,1.92041,38.38254,38.38254,0,0,1,6.79639,4.711,25.18088,25.18088,0,0,0-5.7519-6.95556,26.59449,26.59449,0,0,0-3.793-2.72022,25.74318,25.74318,0,0,0-3.7129-1.81537,27.44679,27.44679,0,0,0-9.814-1.8443c-.39691-.00445-.79437-.0083-1.20361.00287a27.988,27.988,0,0,0-13.42231,3.625,22.60538,22.60538,0,0,0-8.11767,7.76319c-.87451,1.49609-1.10688,2.522-.773,2.51324a12.42843,12.42843,0,0,0,2.58893-1.4057c.60791-.36822,1.3023-.7876,2.07855-1.24274a16.04677,16.04677,0,0,0-1.37445,1.62354,11.84134,11.84134,0,0,0-1.57373,2.86127,9.6386,9.6386,0,0,0-.38086,1.26812,7.07939,7.07939,0,0,0,.13275,3.981s5.27252,8.55121,15.34772,8.72955a21.64951,21.64951,0,0,0,15.84417-6.38971s4.32624-4.91412,7.73682-1.58789a52.02059,52.02059,0,0,0-5.02777-7.36724A43.84729,43.84729,0,0,0,194.22949,73.332Zm-1.21832,6.26862a23.09088,23.09088,0,0,0-5.41309-2.58893,18.57415,18.57415,0,0,0-9.75781-.6059,3.86654,3.86654,0,0,0-1.27289.46875,2.94353,2.94353,0,0,0-1.125,1.66016,6.11188,6.11188,0,0,0-.22711.97461,10.64615,10.64615,0,0,0,.13629,3.55951,12.211,12.211,0,0,0,.37451,1.45019,13.53645,13.53645,0,0,0,1.0307,2.337c.47663.85644.7652,1.208-.41888.96875a10.21944,10.21944,0,0,1-6.4649-4.3545,5.88773,5.88773,0,0,1-.90723-1.71685c-.022-.07856-.05267-.15479-.06738-.23578a4.38825,4.38825,0,0,1,.99322-3.17291c.20648-.2959.42816-.58051.65918-.85737a12.82892,12.82892,0,0,1,1.24713-1.28271,13.0316,13.0316,0,0,1,4.85346-2.78131c.21429-.0669.42669-.14008.645-.19531a16.08914,16.08914,0,0,1,2.78271-.43061,12.74854,12.74854,0,0,1,10.13721,3.082c.11719.09668.24017.1875.355.2876a21.22214,21.22214,0,0,1,2.80908,2.99018c.04779.062.09711.14312.14655.21984l.00036-.00055c.03418-.05126.10358-.05126.15479-.1192-.05121.06794-.12061.06794-.1543.1192l-.00085.00055a4.79237,4.79237,0,0,0,.83294,1.1601C193.92578,80.20947,193.47308,79.8999,193.01117,79.60059Z"/><path class="a" d="M381.84076,207.06689c-8.73474,7.2837-13.69428,20.05372-18.92529,33.57666-5.82471,15.15473-11.86176,30.76362-23.17377,35.94825a19.383,19.383,0,0,1-4.23053,1.39111,24.27759,24.27759,0,0,1-7.59131.3233c-14.92578-1.57135-35.5932-8.41125-45.15131-20.99273-6.71826-8.82282-10.25689-23.26862-13.47167-33.78272a212.98921,212.98921,0,0,1-7.21442-33.20068c-2.20355-16.01911-4.4961-31.90088-6.06738-48.00592-.47992-4.855-.92481-9.55609-1.42127-14.03559-.18713-1.79486-.358-3.55566-.54553-5.28271-1.18012-10.92481-2.37689-20.1568-3.84711-26.25928a32.669,32.669,0,0,0-1.6748-5.14648,26.05125,26.05125,0,0,0-1.45356-2.8208c13.04487-7.77881,23.95209-26.92633,25.83246-43.18409a38.8898,38.8898,0,0,0,.27393-5.52294C272.957,29.96918,268.29,23.0791,259.99609,20.89111a31.88932,31.88932,0,0,0-8.8023-1.04345,33.36382,33.36382,0,0,0-9.90033,1.8125c-10.10205,3.3681-18.83838,10.88964-25.11377,17.77972a31.00442,31.00442,0,0,0-14.73633-7.9834,60.89685,60.89685,0,0,0-7.26569-14.583c-5.1123-7.31726-11.14636-11.31781-17.31878-11.69378a16.68432,16.68432,0,0,0-8.78711,1.88037,29.76925,29.76925,0,0,0-7.232,5.09424,32.86526,32.86526,0,0,0-3.71039,4.15527c-6.3247,8.42719-8.6499,19.6264-9.24853,29.35352-1.316.78662-2.667,1.48779-3.983,2.27392-3.76172,2.1543-9.164,3.28266-16.48139,3.48725-8.39361.22271-18.13824-.83686-27.72949-1.94916-.97412-.11914-1.94824-.22223-2.90625-.3418-11.72809-1.41894-22.85785-2.666-31.66205-1.98242C40.21039,49.18506,26.2251,60.79346,25.67816,70.64111c-.32513,5.77826,2.59821,13.59076,4.64942,18.292-1.247.82025-2.75238,1.84716-4.37641,3.11175C18.03558,98.16547,7.04388,109.53467,5.38477,126.186c-1.316,13.4375,2.53021,26.48151,10.36035,34.8584a27.81386,27.81386,0,0,0,21.21624,9.31739c.49561-.03418,1.00934-.03418,1.53864-.08539l.30811.85492c.46136,1.2481,11.6939,30.585,34.3457,29.93512a29.2722,29.2722,0,0,0,8.83838-1.70954c21.52441-7.84656,24.34472-20.22461,24.44769-25.8667l10.97559-9.86371c3.35064,7.9668,9.625,14.019,11.16363,22.72071a86.08006,86.08006,0,0,1,1.11231,9.728c.58056,9.02587.0166,18.019,0,27.14886.0166,3.82861.08447,7.67584.20459,11.46973.44378,16.37939,1.88037,32.50152,3.16259,47.01471.582,6.25726,2.59912,12.66888,5.00977,18.78906,1.1792,3.1123,2.49512,6.15472,3.7431,9.061,1.04352,2.41022,2.03522,4.78711,2.95752,7.07807,11.62653,29.26764,25.13141,59.71679,45.066,84.1289,2.22205,2.71882,4.291,5.09571,6.37738,7.25a152.04722,152.04722,0,0,0,25.25,20.4961l3.9502-2.27338,3.72558-2.13483a149.30824,149.30824,0,0,1-26.95947-21.79876c-1.95019-2-3.86383-4.20508-5.916-6.75391-20.18952-24.7539-33.18311-55.3067-43.8003-81.97461-.92242-2.34179-1.98193-4.76959-3.043-7.2832a73.85137,73.85137,0,0,1-4.684-16.01856c-3.9317-21.86621.11908-46.519,2.85535-67.51373a83.81835,83.81835,0,0,1,2.73492-14.18787,32.16572,32.16572,0,0,1,3.19629-7.0274c3.47174-5.53912,8.80469-9.54,14.03711-13.38574,3.48682-2.56446,6.958-5.146,10.42822-7.65967,4.75239-3.522,9.48829-7.04352,14.24073-10.51422a49.133,49.133,0,0,0,8.49658-8.25781c.95795-1.14447,1.89886-2.37549,2.80316-3.65821,5.09522-6.97509,9.24951-14.89056,14.34479-21.9682l-24.0542,18.18994c-.2569.18848-24.46436,18.36127-45.81787,21.49018a21.21089,21.21089,0,0,1-2.5127.25641,10.18359,10.18359,0,0,1-1.45257-.03418c-7.23255-.39313-11.11334-5.45362-11.83112-12.80524a35.8,35.8,0,0,1,6.92377-24.66986c-10.65076,2.47949-18.32758,9.47168-26.08881,16.72015-3.72705,3.4878-7.8985,7.94971-10.2915-.03418a16.56606,16.56606,0,0,1-.58106-6.06927c-5.76123,8.68506-3.53912,16.54925-5.02734,25.83294-1.316,8.377-11.29938,13.23243-18.29144,15.76221a18.00958,18.00958,0,0,1-5.91614,1.1792c-11.2832.32575-19.2334-11.40228-23.01172-18.60059.80371,1.5044,12.29254-4.8554,13.48932-5.70989a41.79653,41.79653,0,0,0,8.9917-8.37647c4.06982-4.958,7.16449-15.62653,13.47259-17.55865,2.274-.6836,4.68464-.22217,7.04352-.0337a32.68118,32.68118,0,0,0,11.31842-.9917,22.08649,22.08649,0,0,1-12.8565-5.7265,4.87232,4.87232,0,0,1-.54779-.4273,6.62411,6.62411,0,0,0-2.01661-1.5561,4.5507,4.5507,0,0,0-3.00885.102c-5.47119,1.57374-10.20709,6.51423-14.22418,10.36042-.1709.205-14.10492,13.54052-31.25238,17.37011-6.63281,1.43549-12.99274-.667-17.89941-5.93212a29.59827,29.59827,0,0,1-6.70117-12.5152v-.01605l-.00049-.0019a40.98456,40.98456,0,0,1-1.231-15.19781,35.96994,35.96994,0,0,1,7.3515-18.019c2.376-3.14557,7.9151-10.82178,11.74469-11.74415a16.61975,16.61975,0,0,1,5.813.1875c4.99207.70118,10.17175.71875,14.92426-.9746,1.57373-.58155,3.04394-1.34961,4.65045-1.87995,5.88128-2.01758,12.31-.958,18.498.10163a18.24826,18.24826,0,0,0-19.55761-3.94922c-2.17188.958-4.22321,2.27392-6.5484,2.75293-5.86322,1.17968-10.42823-3.06061-13.26508-8.56495a28.99334,28.99334,0,0,1-3.30084-13.91607c.22272-3.65869,9.437-13.04541,31.08063-14.84027,5.74511-.46094,12.80517.05175,20.49847.88965,3.02594.3247,6.15533.70062,9.335,1.07611,10.83838,1.2998,22.03607,2.59961,31.95172,2.30914,8.54926-.23975,15.19916-1.6582,20.208-4.35992a3.33034,3.33034,0,0,0,.54681-.29053c1.24811-.73529,2.56452-1.43549,3.86383-2.1709h.01758l.00341-.00189c1.9131-1.05957,3.77589-2.10157,5.74067-3.10987,10.99274-5.81353,22.6695-10.78814,33.2525-11.07812a27.71087,27.71087,0,0,1,3.16211.0849,25.33592,25.33592,0,0,1,4.75342.70172h.0166a22.619,22.619,0,0,1,5.04389,1.86377.12971.12971,0,0,1,.1192.0166,21.24187,21.24187,0,0,1,5.915,4.34229,23.11625,23.11625,0,0,1,3.04205,3.55615v.01709l.00049.001c.81976-1.13379,1.78027-2.39991,2.87109-3.74659l-.01513-.01611a.99864.99864,0,0,0-.20557-.25641c-.11835-.15521-.23438-.30554-.35108-.45624.19623.23542.40192.46253.59229.70288.20306.25635.40869.50928.605.77045.02539.03375.05078.05811.07623.0943.19135.25482.3667.52.55115.7793-.20746-.292-.412-.587-.62738-.8736-.0943-.124-.188-.2417-.28217-.34955-.1192-.1372-.23883-.25635-.3233-.377-.01849,0-.01849,0-.01849-.0166l-.00153-.00147c-1.09082,1.34668-2.05133,2.6128-2.8706,3.74707a43.81232,43.81232,0,0,1,4.99359,8.7002v.0517a73.41218,73.41218,0,0,1,5.26373,19.1651l.27435,2.49511,2.22223,1.11182a38.41809,38.41809,0,0,1,8.39447,6.0683.07846.07846,0,0,1,.05133.01758h.01661v.0166h.0166a25.264,25.264,0,0,1,3.76269,4.35992,17.24184,17.24184,0,0,1,1.8291,3.23047,25.98161,25.98161,0,0,1,1.45172,5.04395c1.59028,7.26605,2.92475,19.72949,4.22407,32.44915.06829.78571.17089,1.58991.23919,2.35791.25488,2.71881.5127,5.40338.8028,8.03522,1.86419,18.94287,4.83789,37.74847,8.395,56.43457,3.40228,17.48975,4.82129,40.34711,14.49707,55.44385,11.09472,17.26709,32.20892,26.61719,51.3916,30.75488a84.81522,84.81522,0,0,0,14.37742,2.06787c1.39309.0669,2.78609.07135,4.17922.038,4.67432-.11182,9.34766-.70551,14.01068-1.28614q15.23373-1.921,30.5-3.84515c-12.63519-18.25983-16.019-53.7168,2.90582-69.35889.64887-.54785,1.31641-1.07714,2-1.57373v-9.93213A56.58052,56.58052,0,0,0,381.84076,207.06689ZM196.519,157.98486h.01758l-.01758.0166ZM11.0849,120.59534c-.08423.32287-.17157.6427-.24652.975-.01557.04462-.03021.09052-.04462.13636C10.88531,121.33264,10.98511,120.96417,11.0849,120.59534Zm-1.29626,8.39392c-.00342.13135-.00983.26257-.00983.394-.01312.10742-.02185.21613-.0271.3244Q9.77,129.34854,9.78864,128.98926Zm-.07776,3.1806.001-.0058c-.00183-.14453.005-.29205.0044-.437.00122.11639,0,.23016.01117.35645a.16639.16639,0,0,1-.01557.08056c.00287.20893.00251.41944.00776.62793C9.71729,132.583,9.71088,132.374,9.71088,132.16986Zm.0166,1.145c-.00092-.02393,0-.04877-.00092-.07269.01313.37109.04206.73578.06391,1.10351C9.76172,133.999,9.74316,133.66357,9.72748,133.31488Zm.1289-5.5517c-.00238.0669-.0097.13379-.0097.20118-.00494.03729-.00317.07263-.00745.10931.00745-.10407.009-.20624.01715-.31049.01233-.35742.04743-.71.07673-1.09857.08447-.73541.16992-1.47082.29046-2.188.0152-.07379.02844-.14648.04254-.22027-.13043.78668-.24225,1.58349-.32373,2.397C9.90527,127.02588,9.88477,127.39307,9.85638,127.76318Zm.38379,10.88568c-.03405-.17089-.05169-.35925-.08538-.54779-.02588-.14068-.0376-.2818-.05079-.42236.06452.48535.13819.96625.21778,1.44428C10.29437,138.96478,10.2627,138.812,10.24017,138.64886Zm1.02539,4.70514-.02044.0044c-.31153-1.13672-.57184-2.30762-.79254-3.50049-.00831-.03864-.01509-.07623-.02387-.11523l-.00683-.03809c.0097.0517.02154.102.0307.15332.08789.40576.15582.811.25,1.20215.08551.40961.17.82031.273,1.21283a3.14161,3.14161,0,0,0,.15429.58209c.0503.1709.08539.32422.13568.49512Zm2.127-29.11431c.021-.04682.041-.09369.06152-.14063a1.02559,1.02559,0,0,1,.06879-.13666c.11969-.27392.25641-.54779.376-.8208a1.21608,1.21608,0,0,1,.11976-.20563c.02386-.04681.05017-.08831.07415-.1347C13.85059,113.272,13.61957,113.75439,13.39258,114.23969Zm2.66058-4.84223c-.0141.021-.03119.03851-.04535.059-.2622.4151-.51611.84088-.76764,1.26959.0318-.05517.06354-.1109.09522-.166.1709-.29059.3418-.58209.49518-.87207a1.577,1.577,0,0,0,.17724-.23151c.16168-.2558.33515-.49414.50055-.74469C16.35718,108.94122,16.20111,109.16394,16.05316,109.39746Zm8.68512-10.2749c-.20611.18841-.39361.35931-.582.53021-.30084.27692-.60113.5733-.90143.86719.63013-.62506,1.25641-1.21149,1.8786-1.77686C25.00476,98.86932,24.86389,98.99689,24.73828,99.12256Zm4.0976-3.49365q-.14283.11352-.28559.228c-.16021.1167-.30908.23694-.46441.36334l-.09961.07959c-.04878.04639-.10736.09229-.15479.13916-.23871.205-.49512.40961-.7514.61475a.8383.8383,0,0,0-.18848.1543c-.34723.2998-.71039.602-1.07318.91546-.066.05774-.132.11622-.19781.17481.03607-.03272.07226-.06592.10839-.09857.03028-.02643.05909-.0503.08942-.07624q1.1088-.97621,2.16785-1.82367l.01715-.01513c.02826-.023.05469-.042.08246-.06446.253-.20214.50354-.40045.75-.5913q.11434-.09083.2276-.18164c.17968-.1377.35351-.26661.52929-.3985C29.3457,95.23389,29.09082,95.43158,28.83588,95.62891ZM30.8833,68.21c.0044-.01025.00342-.02008.00879-.03076a1.117,1.117,0,0,0,.05133-.13721.38317.38317,0,0,0,.02338-.03711c.11981-.27264.26385-.5476.41632-.8233a5.98908,5.98908,0,0,0-.32013.67291.84252.84252,0,0,1-.09619.15039c-.02979.06879-.05524.13672-.0835.20508a.96189.96189,0,0,0-.07568.25922,5.86078,5.86078,0,0,0-.377,1.23053,2.49468,2.49468,0,0,0-.10406.44787A8.70167,8.70167,0,0,1,30.8833,68.21Zm-.6748,3.61035a8.57,8.57,0,0,1,0-.92383c.01709-.10211.03369-.20507.05127-.29052a1.02014,1.02014,0,0,1,.01751-.22119.58651.58651,0,0,0,.01813-.09089c-.02881.20118-.05225.40192-.06354.59967-.018.32911-.018.67231-.0097,1.02143a.149.149,0,0,0,.00342.02453,2.36242,2.36242,0,0,0,.0166.34217,3.17621,3.17621,0,0,1,.01758.40869v.00049q-.02867-.39478-.0376-.77588A.4082.4082,0,0,1,30.2085,71.82031Zm.35937,3.24848q-.05274-.28263-.10309-.56391a.06614.06614,0,0,1-.0166-.05182c-.01752-.15429-.05121-.32519-.06879-.49609a.92662.92662,0,0,1-.01507-.205c-.0459-.35943-.0791-.71106-.10455-1.05774.01751.34131.05169.68311.103,1.04011l.00153.01763c.05658.44867.1308.90717.21625,1.371.01269.0567.02545.11627.03851.16748.18311.94683.4151,1.92682.67883,2.90582.01947.07178.04.14307.06.21478-.01221-.04339-.02679-.08587-.03864-.12939-.00781-.02832-.01361-.05658-.02136-.08539-.28723-1.03522-.53235-2.06793-.71734-3.0733Zm4.7348,13.71051a1.02017,1.02017,0,0,1,.10309.18847c0,.01661.01715.03424.01715.06781.24561.5401.45746.9668.59516,1.25739.00885.01849.018.0376.02679.05469a2.04064,2.04064,0,0,1,.12994.26074l.00287.0083.064.12646-.05219.0268c-.00494.00494-.00982.00543-.01471.01031-.11962.06781-.40972.22119-.8208.46143a.30225.30225,0,0,0-.08538.06787,2.04793,2.04793,0,0,1-.273.13721c-.103.05121-.20563.11908-.3252.18853-.56439.32416-1.23053.75135-2,1.2641a4.14881,4.14881,0,0,1-.41064.27387c-.34717.2232-.7154.4732-1.09229.73541a48.55747,48.55747,0,0,1,5.022-3.13873c.01215-.01117.02436-.0249.03705-.0249a.19372.19372,0,0,0-.04889-.12836c-.03216-.06451-.07757-.15674-.13281-.269l-.00677-.01227-.02-.04242c-.22217-.45221-.5943-1.22656-1.04926-2.23486C35.08252,88.313,35.19476,88.55518,35.30267,88.7793Zm-.35009-.75641q-.1941-.43066-.4057-.913c-.002-.00689-.0127-.016-.0127-.02246a1.0096,1.0096,0,0,1-.1026-.18854c-.03412-.08538-.06928-.18847-.103-.29-.01123-.02741-.02392-.0586-.03558-.086-.359-.83692-.73987-1.76258-1.12067-2.74652a1.89905,1.89905,0,0,1-.10833-.22809,2.842,2.842,0,0,1-.11976-.35932c-.03021-.083-.0625-.17388-.09417-.25976.10687.28711.21441.56879.32226.84717.02143.042.03766.0874.0625.13134.36322.9419.72516,1.81635,1.05817,2.61518.08295.19287.16394.3819.24408.56451l.00977.02246a.43779.43779,0,0,0,.0556.09619C34.71967,87.4917,34.8374,87.76416,34.95258,88.02289ZM35.66211,62.127c-.25391.21741-.49207.43921-.73175.6604.24237-.22534.47046-.452.73175-.67547Zm.104-.10705c-.00543.00732-.01324.01324-.01849.02154a.23994.23994,0,0,0-.05737.04554c.02612-.02228.04956-.04486.07586-.06708a1.0312,1.0312,0,0,1,.10108-.11517c.20562-.1709.41058-.34229.64941-.51319.22461-.1748.47272-.34723.709-.52051C36.71289,61.25,36.22406,61.63281,35.76611,62.02Zm7.15277-4.56439.02539-.01319.01081-.00488Zm8.91559-3.33008q-.81885.20582-1.58886.46142a.3315.3315,0,0,0-.1709.05127,1.34224,1.34224,0,0,0-.14655.03662c-.21966.06977-.44086.13868-.65716.21051-.09229.03119-.18464.05658-.27338.09516-.294.0932-.5957.20074-.89313.30664-.09668.03418-.19482.06787-.291.10248-.08887.04107-.17817.07428-.25251.10357a.32657.32657,0,0,0-.03662.00946c.09912-.03649.18921-.0769.28913-.113.01361-.00629.02539-.00922.039-.01612.08264-.03021.168-.05658.252-.08636.38379-.13623.77051-.27155,1.16651-.4018.15478-.05334.31048-.10754.46087-.16125.06891-.01947.13245-.03265.19629-.04926.885-.28039,1.80579-.542,2.74494-.79333C52.38647,53.96063,52.10986,54.04932,51.83447,54.12549ZM56.7251,52.9458a2.93639,2.93639,0,0,0-.31879.05658c-.08655.01758-.17493.03418-.2608.05231-.5459.12939-1.07862.2583-1.62653.3872-.06781.01758-.1709.01758-.23871.03418-.09228.01563-.19677.04291-.292.061l-.03808.00879c-.0669.0332-.13428.05029-.21784.08447-.293.06128-.574.12561-.86444.19989.36023-.09509.71313-.1944,1.08228-.28436l.00488-.002c.01074-.0014.0224-.00482.0332-.00677.70313-.1709,1.42481-.32965,2.15723-.48242.03369-.00781.0664-.01612.10058-.02393.05127-.01129.1084-.01758.16022-.02838.37018-.07568.759-.13879,1.13641-.20966C57.27148,52.84473,57.00037,52.89233,56.7251,52.9458Zm9.76117-1.28223a.33457.33457,0,0,0-.22168.01764c-.27393.01746-.53021.03357-.8042.05115-.23871.0166-.49512.03424-.75141.06793-.44531.01758-.855.06928-1.28216.12061-.10016.00879-.18854.01758-.28131.02691-.41113.04535-.81641.09565-1.22071.14637.32032-.04291.63617-.0893.97168-.123.08008-.00781.167-.01562.249-.02338.76947-.08551,1.54736-.16363,2.34179-.22863.39655-.03241.81708-.04633,1.2262-.06909C66.638,51.65674,66.56366,51.65448,66.48627,51.66357Zm1.49511-.085-.00732.00049-.02393.00128.03125-.00177a1.87854,1.87854,0,0,1,.30079-.01715c.315-.01458.645-.0141.97412-.01458C68.82709,51.5542,68.40039,51.563,67.98138,51.57861Zm4.34772-.03173c.3501.00439.69336.01458,1.04736.01458a.56575.56575,0,0,1,.1709.01764c.148.00488.30072.01416.44873.01947C73.436,51.57806,72.87646,51.55811,72.3291,51.54688Zm7.50977.4082c-.36035-.02979-.70508-.06061-1.05078-.09039-.11872-.00873-.23682-.01661-.35547-.02491-.32862-.01458-.64655-.02832-.97022-.05707-.17529-.01025-.34424-.02734-.51513-.04345-.4571-.0279-.90424-.0484-1.3545-.0708.35645.0166.70264.02881,1.06543.04632.09278.00641.19336.01569.28907.02448.48974.02929.98822.06592,1.48535.10052.0708.003.13617.00928.209.01233.04828.00385.09857.0083.14649.01258.76617.05548,1.5465.12072,2.32867.18713C80.68671,52.01489,80.25592,51.98248,79.83887,51.95508Zm3.145.27289c-.20447-.02552-.3949-.04547-.58722-.06409.43384.03931.87976.0863,1.31738.12805C83.4624,52.27557,83.2218,52.25922,82.98389,52.228ZM93.0542,53.30518c-.98932-.1153-1.97711-.231-2.95172-.34668-.0586-.00684-.11621-.0127-.17481-.01954-.76361-.08258-1.5122-.1651-2.27575-.23248a.6081.6081,0,0,0-.18854-.03412c-1.20722-.13232-2.39624-.26239-3.57184-.36316,1.97961.19013,3.98651.39771,6.03613.62976l.066.00684c.03559.0044.0727.0083.10877.0127q1.47225.16689,2.96051.34179,1.39965.16407,2.81.33148C94.93018,53.521,93.98627,53.40918,93.0542,53.30518Zm7.90381.92382-.00543-.00055c-.02289-.00238-.04541-.00537-.0683-.00824l.07373.00879a2.56809,2.56809,0,0,1,.354.0337c.78858.08251,1.57855.17279,2.3692.26116l.06427.00727C102.81519,54.4278,101.88867,54.33661,100.958,54.229Zm17.05566,1.58979c-.20118-.02442-.40869-.03412-.61481-.04779-2.85095-.16889-5.76214-.41309-8.70306-.70362l-.01611-.00152-.03223-.00336.04834.00488c1.65228.15283,3.23731.27289,4.83942.42578,1.21277.08545,2.41058.15473,3.58978.25635.08942.0108.18207.01508.27386.02149.39551.02337.7945.05029,1.187.0708C118.39307,55.832,118.208,55.82861,118.01367,55.81879Zm5.5224.18707h-.222c-.24665-.00537-.49811-.01569-.74476-.022.3462.00781.6944.01709,1.03809.02148C123.5835,56.00537,123.56049,56.00629,123.53607,56.00586Zm3.86383-.01617h-.13672c-.0708.002-.14648-.00092-.21777.001.29535-.00677.58588-.01849.87836-.02826C127.74756,55.97119,127.58057,55.98486,127.3999,55.98969Zm4.89289-.31537c.028-.0047.05651-.005.08221-.01026.06744-.00555.13239-.01428.19958-.02032C132.47986,55.65314,132.38788,55.66528,132.29279,55.67432Zm2.51727-.27442c-.00244.00391,0,.00781-.0083.00781l-.01367-.00445c-.277.03851-.57209.0581-.85285.09265.27521-.03448.55213-.069.81622-.1048a.04588.04588,0,0,1,.03663.01215l.022-.00336.00921-.00879c.23981-.03021.46735-.06762.70441-.1051C135.28448,55.32257,135.052,55.36609,134.81006,55.3999Zm3.18945-.53912c-.39111.07873-.79693.15143-1.20074.22168.50543-.09229,1.00885-.1875,1.49914-.29535C138.19678,54.80957,138.10059,54.83887,137.99951,54.86078Zm1.86377-.46137c-.13721.03955-.28662.06836-.42731.106.2901-.07379.58454-.14307.86872-.2232C140.15717,54.32129,140.01508,54.36469,139.86328,54.39941Zm1.1626-.32525c-.01758.01764-.05127.01764-.06891.03473-.11517.0332-.23578.061-.3515.0932.459-.13373.89892-.28711,1.34082-.43842C141.64008,53.87207,141.33636,53.98828,141.02588,54.07416Zm3.00934-1.11127c-.18311.082-.38043.1499-.56842.227.30371-.124.61621-.2392.90966-.37347C144.2627,52.86566,144.14789,52.91406,144.03522,52.96289Zm13.30066-7.18359q-2.559,1.32569-5.02582,2.68408c-1.55469.85248-3.08008,1.7055-4.566,2.54639q-.78077.44164-1.54779.8789l-.02441.01459c-.05469.03131-.1167.0567-.17188.0874.05316-.0293.11182-.05365.16461-.084l.03168-.018c.50537-.30328,1.02588-.606,1.54779-.92529.06891-.03522.13678-.05182.22272-.103.06787-.05182.1709-.06793.23877-.13733.61572-.34179,1.248-.68347,1.8637-1.04187.44489-.2398.88874-.49615,1.3501-.73541.29151-.1709.59925-.3418.88971-.49609l.00141-.001c.59771-.32367,1.212-.64941,1.82769-.99066.46088-.23883.92328-.49561,1.38471-.73535.5982-.32428,1.19678-.63239,1.81158-.95655.08643-.03424.18842-.08545.29151-.1372.18853-.09815.38379-.19635.57373-.29444Q157.76675,45.5563,157.33588,45.7793Zm2.87158-1.44971c-.32215.15479-.64447.31488-.96729.477-.16986.08551-.34179.17-.51165.25641.06634-.03369.12939-.06738.19677-.10108.105-.05474.21-.10253.31488-.15533.34375-.17322.69245-.34064,1.038-.5119C160.25482,44.307,160.23077,44.31708,160.20746,44.32959Zm4.38281-2.09772c-.49646.23151-.97845.46344-1.45941.69629-.48267.21625-.96393.43335-1.43054.6651q1.43628-.69469,2.88995-1.36139l.045-.02148c.0766-.03412.15571-.06879.23237-.103C164.77539,42.14941,164.68262,42.18988,164.59027,42.23187Zm6.16022-2.60638c-.19678.07812-.398.15668-.59332.24219-.35926.13671-.70105.27343-1.05945.42718a.46521.46521,0,0,0-.05286.0108q-.81729.3339-1.63177.68164c.20361-.08642.40332-.17681.60742-.26513a3.41417,3.41417,0,0,0,.44476-.20508c.10211-.03369.187-.06793.273-.10248.08539-.03424.1709-.06842.27338-.10211a.09447.09447,0,0,1,.0332-.00684q.85189-.348,1.70563-.68017c.23437-.09278.46429-.18561.706-.28809.70123-.25683,1.38532-.51324,2.08551-.752.10639-.03613.21137-.07031.31739-.10639Q172.30151,39.02017,170.75049,39.62549Zm10.22607-3.24121a2.27474,2.27474,0,0,1-.22027.06439,10.44049,10.44049,0,0,0-1.05951.25641c-.07569.02-.15192.03558-.228.0556-.41949.11041-.83893.2207-1.25879.33991-.45221.1391-.896.28808-1.35113.42529-.38282.09473-.76709.20953-1.14991.3349-.2041.066-.4082.13483-.6123.20221.1767-.0586.353-.12213.53168-.17871.02691-.00879.05371-.01471.08062-.0235.8335-.268,1.66748-.52338,2.501-.76019.05756-.01758.11316-.03663.17084-.05371.1875-.05127.37591-.10309.54681-.1543.18073-.03571.3609-.085.54114-.1319.50287-.13281,1.00525-.25677,1.50775-.3764.0249-.0083.0459-.0127.07135-.021.142-.03467.28168-.063.42328-.09619C181.30658,36.30469,181.1416,36.34467,180.97656,36.38428Zm3.01074-.64411c.13672-.0249.27387-.05511.41059-.07861.31988-.06.63922-.09906.95849-.14648C184.90039,35.58636,184.44427,35.65631,183.9873,35.74017Zm6.65717-.75238c-.80218.03607-1.59369.09619-2.38281.16107-.03858,0-.08686.00641-.13037.00782-.42572.042-.853.09533-1.27973.149a.326.326,0,0,0-.12848.03174c-.11267,0-.2348.02-.351.02826-.06549.00885-.13086.0152-.19629.02442.04-.0058.07959-.01307.11963-.0185.02435,0,.05127-.00439.07666-.00592.15961-.02185.31934-.04.47949-.06l.0083-.002c.23975-.03516.46143-.06933.684-.08642a.1635.1635,0,0,1,.12018-.03418,2.11947,2.11947,0,0,1,.30713-.01661,1.12669,1.12669,0,0,1,.1601-.00982c.84137-.08252,1.67877-.1352,2.51318-.16889.04932-.002.09723-.00781.147-.00982.05371-.00238.104.001.15717-.00086C190.84717,34.98,190.74561,34.98389,190.64447,34.98779Zm.37061-4.59228c-11.11316.34326-22.70459,4.75335-33.62842,10.24115.6665-8.27387,4.13672-16.53168,9.7276-21.84857a22.89171,22.89171,0,0,1,5.11181-3.58991c5.82959-2.92328,11.09571,2.1543,14.44629,6.97473a47.99313,47.99313,0,0,1,4.6333,8.25775A.57161.57161,0,0,0,191.01508,30.39551Zm2.08551,4.56787c-.0459-.001-.0918-.001-.1377-.002.04492.001.09277-.00189.1377-.001.03808,0,.07812.00348.1167.004C193.17871,34.96338,193.13959,34.96387,193.10059,34.96338Zm.91943.02881.07178.00238c.05322.00152.10638.01031.15918.0122C194.17377,35.00238,194.09717,34.99561,194.02,34.99219Zm3.93646.41357h-.05121c-.12158-.01758-.25738-.05176-.3955-.06836a.95253.95253,0,0,0-.22016-.03369.28764.28764,0,0,0-.11975-.01764c-.0625-.01459-.12939-.01849-.19238-.02881q-.4812-.06435-.96527-.11419a.3658.3658,0,0,1,.063.00579c.1372.01764.27288.01764.41021.03425.1723.02435.33148.04785.49207.07415q.46875.06226.93408.13874c.087.0141.17194.03772.25873.05291C198.09857,35.43347,198.02869,35.42261,197.95648,35.40576Zm3.82868.88861a1.019,1.019,0,0,1-.13379-.05169c-.08008-.0235-.15967-.05079-.2403-.0738.05084.01423.10163.02539.15192.03962.02679.01416.0581.02148.08838.03418.15222.04461.30279.09741.45477.14355C201.99768,36.35291,201.88776,36.317,201.78516,36.29437Zm1.68945.54889a.24178.24178,0,0,0-.06445-.01855c-.1026-.03424-.22419-.06842-.32514-.103-.14044-.05579-.29608-.11212-.45019-.16852.14978.04865.30114.09.45019.14215.13074.04535.25916.1001.38959.148a.37568.37568,0,0,1,.05316.01514c.08649.03418.1543.05176.24085.08539.206.06939.41009.15429.64886.25641.01373.0039.0249.01171.03864.01556C204.13086,37.0835,203.80267,36.96289,203.47461,36.84326Zm4.97748,2.4082a1.39068,1.39068,0,0,1-.2392-.16015c-.57721-.34815-1.16461-.6836-1.7749-.98786-.54791-.27288-1.10163-.52337-1.65869-.75824a2.40472,2.40472,0,0,1,.32226.12885c.46093.1875.87305.41022,1.33393.6153.15289.0849.32379.17181.49469.27343a2.42268,2.42268,0,0,1,.2221.13721,3.71564,3.71564,0,0,1,.68408.376,1.921,1.921,0,0,1,.36042.20459c.00439.00439.01172.00683.01611.01074.092.05542.17865.11767.269.17517Zm1.67627,1.12891c-.03028-.02978-.04486-.045-.061-.05957-.26269-.19043-.53711-.36621-.80707-.54742.26746.17779.53846.34381.79828.53912l.00879.0083c.19025.13788.36609.29236.55146.436C210.454,40.63135,210.288,40.506,210.12836,40.38037Zm3.03912,2.5517c-.13428-.1294-.27051-.25629-.40717-.3833.13666.1289.27967.24859.4101.37939a.63986.63986,0,0,1,.13916.13825C213.26318,43.02051,213.21436,42.97748,213.16748,42.93207Zm.17383.18463c0-.01648-.00189-.01856-.01508-.0329.04969.04846.09467.10138.144.15015C213.426,43.19489,213.3866,43.1557,213.34131,43.1167Zm5.9873,7.66986.01416.022a6.98858,6.98858,0,0,1,.49659.83838,4.01164,4.01164,0,0,1,.30712.5293,4.54712,4.54712,0,0,1,.22223.41113c.0932.18067.18109.35547.27338.53516C220.22461,52.33636,219.791,51.55518,219.32861,50.78656Zm5.00678,10.91315v-.06934c-.33148-.94141-.68451-1.89307-1.07172-2.85547.02539.0625.0542.12647.0791.18848.03461.06933.06983.1543.10254.22259.27436.63239.48,1.23151.68408,1.83014.06788.187.13819.39307.206.58057v.03369c.11212.31824.20349.62207.31048.93707C224.54236,62.275,224.43829,61.98462,224.33539,61.69971Zm17.18072,20.002a44.98394,44.98394,0,0,0-9.14654-7.04346c-.15479-.855-.3418-1.89789-.59711-3.09424v-.05175A17.77073,17.77073,0,0,1,233.395,62.2124c2.34174-4.77,7.88226-8.13824,13.02875-6.80469a11.13387,11.13387,0,0,0-4.4795-3.915,35.28907,35.28907,0,0,1,13.1294-4.18848c.41022-.22223.0166-.83691-.393-1.05963a21.88948,21.88948,0,0,0-7.83056-3.52149,10.48982,10.48982,0,0,0-8.25629,1.6402c-2.87311,2.17188-4.82184,6.4292-8.37854,6.10352a4.62194,4.62194,0,0,1-3.79339-3.09424c-3.64362-10.01758,17.79589-18.17236,25.01068-18.3609a22.11777,22.11777,0,0,1,2.80322.11963,22.80473,22.80473,0,0,1,3.4024.5816,7.77173,7.77173,0,0,1,5.16309,4.35889c1.41894,3.00927,1.43549,6.99218,1.02582,10.44629-1.11231,9.60742-5.48871,19.165-11.26563,26.82324C250.269,74.38428,245.77289,79.59906,241.51611,81.70166Z"/><path class="b" d="M378.55957,203.13531c-9.76221,8.15467-14.94189,21.50776-20.43066,35.67957-5.01953,13.04688-10.18512,26.4566-18.38721,31.8985a14.85511,14.85511,0,0,1-5.2749,2.24219,17.48543,17.48543,0,0,1-3.74414.37689,20.51811,20.51811,0,0,1-2.25489-.11908c-14.2417-1.50592-33.32129-8.10449-41.61328-19.01172-5.16113-6.78809-8.51422-18.13867-11.19732-27.26855-.49659-1.69294-.97461-3.334-1.45209-4.87262a209.27367,209.27367,0,0,1-7.044-32.414l-.90619-6.54742c-1.86377-13.50629-3.77929-27.457-5.14648-41.25385l-.103-1.12744c-.42627-4.49658-.855-8.83838-1.31586-12.95947l-.22271-2.27392c-.103-1.0254-.20362-2.0337-.3252-3.0254-1.417-13.25-2.59723-21.30181-3.96484-27.01171a48.25294,48.25294,0,0,0-1.5567-4.9751c12.293-9.48828,22.44683-27.59381,24.37841-44.27881.13819-1.07715.22272-2.13678.274-3.18018.68359-14.0357-5.52148-24.0542-16.97656-27.08062a36.95436,36.95436,0,0,0-9.35059-1.21338h-.88965a40.97333,40.97333,0,0,0-15.45459,3.65918c-7.7442,3.419-14.481,8.78711-19.8316,14.06945a34.94367,34.94367,0,0,0-4.99219-3.0606,37.29367,37.29367,0,0,0-5.47021-2.17041,64.54214,64.54214,0,0,0-6.92426-13.28424,34.55791,34.55791,0,0,0-12.873-11.625,21.53554,21.53554,0,0,0-19.729.17089,34.76667,34.76667,0,0,0-8.46289,5.93262,40.48084,40.48084,0,0,0-9.1123,13.044,67.57667,67.57667,0,0,0-5.21387,21.09711c-.56451.3067-1.12842.63189-1.64111.92242-2.958,1.69287-7.69391,2.6333-14.06983,2.8208-.70166.01758-1.40289.03516-2.12054.03516a175.45793,175.45793,0,0,1-17.98493-1.18067c-3.07757-.32422-6.17242-.68359-9.23193-1.043l-.54688-.06781c-10.01861-1.19677-18.9776-2.20556-26.90966-2.20556-2.05133,0-4.00055.06878-5.79541.20611-28.07184,2.29-43.4585,15.98377-44.125,28.31-.30762,5.2149,1.45306,11.47168,3.45306,16.72015C15.626,93.31049,2.22217,106.166.27289,125.68951c-.15332,1.57367-.23871,3.14588-.25629,4.7016C0,130.76709,0,131.12646,0,131.50238c.03418,12.80518,4.34277,24.85748,11.98438,33.02979a33.12221,33.12221,0,0,0,23.063,10.9414c3.58985,8.12061,15.5224,30.73883,37.38861,30.73883.29059,0,.58112,0,.85505-.0166a34.079,34.079,0,0,0,10.4458-2.03473c22.0874-8.03558,26.82324-21.11371,27.66156-28.24261l4.51269-4.05225c.64942,1.11127,1.317,2.17188,1.98291,3.23145,2.49658,4.017,4.87311,7.8305,5.62464,12.12152a81.00341,81.00341,0,0,1,1.04339,9.18072c.39356,5.91461.25635,11.7793.11957,17.96826-.0517,2.94-.11957,5.8974-.13721,8.88861.03522,3.86384.10309,7.7627.22272,11.59131.44482,16.1734,1.84717,32.209,3.09418,46.36432l.08551.97406c.56439,5.9502,2.25732,12.36182,5.31689,20.1236,1.146,3.0415,2.41065,5.94775,3.62451,8.77l.2226.51172c1.0083,2.36126,1.98248,4.70306,2.88824,6.9414,11.79737,29.66407,25.50879,60.53907,45.86914,85.48047,2.46241,3.00971,4.565,5.40228,6.63385,7.55664a153.726,153.726,0,0,0,24.03608,19.79877l4.92431-2.85742a152.04722,152.04722,0,0,1-25.25-20.4961c-2.08642-2.15429-4.15533-4.53118-6.37738-7.25-19.93463-24.41211-33.43951-54.86126-45.066-84.1289-.9223-2.291-1.914-4.66785-2.95752-7.07807-1.248-2.90631-2.5639-5.94873-3.7431-9.061-2.41065-6.12018-4.4278-12.5318-5.00977-18.78906-1.28222-14.51319-2.71881-30.63532-3.16259-47.01471-.12012-3.79389-.188-7.64112-.20459-11.46973.0166-9.12988.58056-18.123,0-27.14886a86.08006,86.08006,0,0,0-1.11231-9.728c-1.53863-8.70166-7.813-14.75391-11.16363-22.72071l-10.97559,9.86371c-.103,5.64209-2.92328,18.02014-24.44769,25.8667a29.2722,29.2722,0,0,1-8.83838,1.70954c-22.6518.6499-33.88434-28.687-34.3457-29.93512L38.5,170.27637c-.5293.05121-1.043.05121-1.53864.08539a27.81386,27.81386,0,0,1-21.21624-9.31739C7.915,152.66748,4.06879,139.62347,5.38477,126.186c1.65911-16.6513,12.65081-28.0205,20.5664-34.14111,1.624-1.26459,3.1294-2.2915,4.37641-3.11175-2.05121-4.70124-4.97455-12.51374-4.64942-18.292.54694-9.84765,14.53223-21.456,39.44055-23.49023,8.8042-.68359,19.934.56348,31.66205,1.98242.958.11957,1.93213.22266,2.90625.3418,9.59125,1.1123,19.33588,2.17187,27.72949,1.94916,7.31739-.20459,12.71967-1.33295,16.48139-3.48725,1.316-.78613,2.667-1.4873,3.983-2.27392.59863-9.72712,2.92383-20.92633,9.24853-29.35352a32.86526,32.86526,0,0,1,3.71039-4.15527,29.76925,29.76925,0,0,1,7.232-5.09424,16.68432,16.68432,0,0,1,8.78711-1.88037c6.17242.376,12.20648,4.37652,17.31878,11.69378a60.89685,60.89685,0,0,1,7.26569,14.583,31.00442,31.00442,0,0,1,14.73633,7.9834c6.27539-6.89008,15.01172-14.41162,25.11377-17.77972a33.36382,33.36382,0,0,1,9.90033-1.8125,31.88932,31.88932,0,0,1,8.8023,1.04345c8.29389,2.188,12.96088,9.07807,13.18311,19.18116a38.8898,38.8898,0,0,1-.27393,5.52294C271.0249,61.853,260.11768,81.00049,247.07281,88.7793a26.05125,26.05125,0,0,1,1.45356,2.8208,32.669,32.669,0,0,1,1.6748,5.14648c1.47022,6.10248,2.667,15.33447,3.84711,26.25928.1875,1.72705.3584,3.48785.54553,5.28271.49646,4.4795.94135,9.18061,1.42127,14.03559,1.57128,16.105,3.86383,31.98681,6.06738,48.00592a212.98921,212.98921,0,0,0,7.21442,33.20068c3.21478,10.5141,6.75341,24.9599,13.47167,33.78272,9.55811,12.58148,30.22553,19.42138,45.15131,20.99273a24.27759,24.27759,0,0,0,7.59131-.3233,19.383,19.383,0,0,0,4.23053-1.39111c11.312-5.18463,17.34906-20.79352,23.17377-35.94825,5.231-13.52294,10.19055-26.293,18.92529-33.57666a56.58052,56.58052,0,0,1,7.31744-5.11084V196.0752A65.86683,65.86683,0,0,0,378.55957,203.13531Z"/></svg>